<svg id="chef_x5F_hat" enable-background="new 0 0 300 300" height="512" viewBox="0 0 300 300" width="512" xmlns="http://www.w3.org/2000/svg"><circle cx="119.242" cy="120" fill="#ffded5" r="90"/><path d="m266.759 143.593c0-36.226-29.367-65.593-65.593-65.593-15.26 0-29.266 5.256-40.409 13.995-9.619-6.237-21.066-9.896-33.383-9.896-33.962 0-61.494 27.532-61.494 61.494 0 20.099 8.451 39.186 23.362 50.407v72h152l-.049-71.248c14.983-12.021 25.566-30.455 25.566-51.159z" fill="#fff"/><path d="m241.242 270h-152c-2.211 0-4-1.791-4-4v-70.051c-14.668-11.898-23.363-31.305-23.363-52.355 0-36.113 29.383-65.494 65.496-65.494 11.688 0 23.094 3.123 33.16 9.057 11.91-8.618 25.899-13.157 40.633-13.157 38.371 0 69.59 31.219 69.59 69.594 0 20.088-9.293 39.316-25.566 53.045l.051 69.359c0 1.061-.422 2.078-1.172 2.83-.751.75-1.766 1.172-2.829 1.172zm-148-8h143.996l-.047-67.246c0-1.213.551-2.361 1.496-3.121 15.297-12.273 24.07-29.781 24.07-48.039 0-33.963-27.629-61.594-61.59-61.594-13.863 0-26.98 4.545-37.941 13.143-1.344 1.053-3.215 1.139-4.645.209-9.336-6.053-20.129-9.252-31.207-9.252-31.703 0-57.496 25.791-57.496 57.494 0 19.303 8.137 36.953 21.77 47.211 1.004.756 1.594 1.939 1.594 3.195z" fill="#4c241d"/><path d="m90.925 246.157h60.823" fill="#fff"/><path d="m151.746 250.158h-60.82c-2.211 0-4-1.791-4-4s1.789-4 4-4h60.82c2.211 0 4 1.791 4 4s-1.789 4-4 4z" fill="#4c241d"/><path d="m201.241 246.157h39.952" fill="#fff"/><path d="m241.191 250.158h-39.949c-2.211 0-4-1.791-4-4s1.789-4 4-4h39.949c2.211 0 4 1.791 4 4s-1.789 4-4 4z" fill="#4c241d"/><path d="m169.637 246.157h13.715" fill="#fff"/><path d="m183.352 250.158h-13.715c-2.211 0-4-1.791-4-4s1.789-4 4-4h13.715c2.211 0 4 1.791 4 4s-1.79 4-4 4z" fill="#4c241d"/><path d="m166.059 88.733s-14.311 7.156-28.623 35.778" fill="#fff"/><path d="m137.434 128.512c-.602 0-1.211-.135-1.785-.422-1.977-.988-2.777-3.391-1.789-5.367 14.734-29.477 29.777-37.25 30.41-37.566 1.973-.99 4.383-.184 5.367 1.789.984 1.969.191 4.359-1.766 5.355-.273.143-13.539 7.363-26.855 34-.7 1.4-2.114 2.211-3.582 2.211z" fill="#4c241d"/><path d="m89.242 194h152" fill="#fff"/><g fill="#4c241d"><path d="m241.242 198h-152c-2.211 0-4-1.791-4-4s1.789-4 4-4h152c2.211 0 4 1.791 4 4s-1.789 4-4 4z"/><path d="m120.191 195.119c-1.625 0-3.156-1.002-3.754-2.617l-11.379-30.828c-.762-2.072.297-4.373 2.367-5.137 2.066-.768 4.375.293 5.141 2.367l11.379 30.828c.762 2.072-.297 4.373-2.367 5.137-.457.17-.926.25-1.387.25z"/><path d="m153.238 198c-1.852 0-3.512-1.289-3.91-3.172l-8.648-40.865c-.457-2.162.926-4.283 3.086-4.742 2.164-.451 4.285.926 4.742 3.086l8.648 40.865c.457 2.162-.926 4.283-3.086 4.742-.277.059-.558.086-.832.086z"/><path d="m177.039 194.525c-.242 0-.484-.021-.73-.066-2.172-.402-3.609-2.488-3.207-4.66l6.914-37.391c.402-2.176 2.488-3.609 4.66-3.207s3.609 2.488 3.207 4.66l-6.914 37.391c-.356 1.928-2.039 3.273-3.93 3.273z"/><path d="m209.238 198c-.625 0-1.258-.146-1.852-.455-1.957-1.025-2.711-3.441-1.688-5.4l17.641-33.711c1.023-1.957 3.434-2.707 5.398-1.689 1.957 1.025 2.711 3.441 1.688 5.4l-17.641 33.711c-.714 1.365-2.104 2.144-3.546 2.144z"/></g></svg>